# xmcd CD database file
#
# Track frame offsets:
#	150
#	14437
#	34157
#	50525
#	67962
#	88462
#	100080
#	120775
#	141347
#	159520
#
# Disc length: 2668 seconds
#
# Revision: 1
# Processed by: cddbd v1.5.2PL0 Copyright (c) Steve Scherf et al.
# Submitted via: CDex 1.70beta3
#
DISCID=800a6a0a
DTITLE=AIR - Best Not Best [CD2]
DYEAR=2003
DGENRE=Rock
TTITLE0=Me, We
TTITLE1=24Years Old(From "All Along Air" ver./Knitting Factory)
TTITLE2=No Kidding?
TTITLE3=Put Your Hands Up
TTITLE4=Today
TTITLE5=Kids Are Alright
TTITLE6=Liberal
TTITLE7=6453
TTITLE8=Right Riot feat. kj
TTITLE9=Everything, or Everyone and Everything, or Peace 2001
EXTD=YEAR: 2003
EXTT0=
EXTT1=
EXTT2=
EXTT3=
EXTT4=
EXTT5=
EXTT6=
EXTT7=
EXTT8=
EXTT9=
PLAYORDER=
